<?xml version="1.0" standalone="no"?>
<!DOCTYPE svg PUBLIC "-//W3C//DTD SVG 20010904//EN"
 "http://www.w3.org/TR/2001/REC-SVG-20010904/DTD/svg10.dtd">
<svg version="1.0" xmlns="http://www.w3.org/2000/svg"
 width="1600.000000pt" height="1200.000000pt" viewBox="0 0 1600.000000 1200.000000"
 preserveAspectRatio="xMidYMid meet">

<g transform="translate(0.000000,1200.000000) scale(0.100000,-0.100000)"
fill="#000000" stroke="none">
<path d="M502 11610 c-45 -27 -72 -76 -72 -128 0 -58 50 -112 101 -112 l34 1
-45 22 c-75 37 -90 110 -34 176 68 81 194 54 194 -41 0 -46 -15 -78 -35 -78
-11 0 -15 13 -15 48 0 56 -12 72 -56 72 -60 0 -98 -85 -56 -123 23 -21 41 -21
69 -2 19 13 22 13 27 0 8 -23 40 -18 67 11 18 19 24 37 24 71 0 38 -5 49 -33
74 -27 24 -41 29 -85 29 -34 0 -63 -7 -85 -20z m104 -87 c11 -44 -30 -88 -63
-67 -41 25 -16 94 33 94 17 0 25 -7 30 -27z"/>
<path d="M740 11525 c0 -57 4 -95 10 -95 6 0 10 38 10 95 0 57 -4 95 -10 95
-6 0 -10 -38 -10 -95z"/>
<path d="M810 11550 c-27 -27 -26 -71 3 -98 29 -28 57 -28 91 -1 50 40 21 119
-44 119 -17 0 -39 -9 -50 -20z m92 -25 c20 -44 -30 -93 -68 -67 -18 12 -26 50
-14 72 16 30 67 27 82 -5z"/>
<path d="M966 11548 c-22 -31 -20 -74 4 -98 22 -22 60 -26 78 -8 17 17 26 4
18 -26 -8 -34 -50 -45 -76 -21 -11 10 -23 15 -28 11 -11 -12 37 -46 64 -46 48
0 64 31 64 125 0 50 -4 85 -10 85 -5 0 -10 -5 -10 -10 0 -7 -6 -7 -19 0 -32
17 -69 12 -85 -12z m96 -23 c9 -19 8 -29 -6 -50 -9 -14 -24 -25 -33 -25 -21 0
-53 29 -53 47 0 54 70 75 92 28z"/>
<path d="M1136 11548 c-35 -49 -5 -118 49 -118 14 0 37 12 52 26 20 20 24 31
19 57 -8 40 -30 57 -72 57 -23 0 -38 -7 -48 -22z m92 -36 c4 -40 -12 -62 -44
-62 -33 0 -52 40 -36 76 10 21 18 25 45 22 28 -3 32 -7 35 -36z"/>
<path d="M1290 11555 c-18 -22 -6 -42 35 -59 40 -17 48 -46 12 -46 -13 0 -28
5 -35 12 -6 6 -15 8 -19 4 -11 -11 26 -36 53 -36 22 0 54 24 54 40 0 15 -31
40 -49 40 -28 0 -45 25 -27 39 14 12 46 5 46 -10 0 -5 5 -9 10 -9 6 0 10 6 10
14 0 28 -69 36 -90 11z"/>
<path d="M1420 11516 c0 -75 30 -103 81 -76 13 7 19 7 19 0 0 -5 5 -10 10 -10
6 0 10 30 10 70 0 81 -17 95 -22 19 -3 -59 -25 -82 -55 -63 -13 8 -19 27 -21
63 -4 68 -22 66 -22 -3z"/>
<path d="M1580 11465 c0 -63 4 -105 10 -105 6 0 10 20 10 45 0 42 11 58 25 35
10 -17 54 -11 75 10 24 24 26 67 4 98 -16 24 -53 29 -85 12 -13 -7 -19 -7 -19
0 0 5 -4 10 -10 10 -6 0 -10 -42 -10 -105z m112 60 c9 -19 8 -29 -6 -50 -9
-14 -24 -25 -33 -25 -21 0 -53 29 -53 47 0 54 70 75 92 28z"/>
<path d="M1750 11500 c0 -40 4 -70 10 -70 6 0 10 22 10 49 0 40 4 53 22 65 12
9 19 19 15 22 -4 4 -13 1 -22 -6 -10 -8 -15 -9 -15 -1 0 6 -4 11 -10 11 -6 0
-10 -30 -10 -70z"/>
<path d="M1846 11548 c-22 -31 -20 -60 5 -92 22 -28 57 -34 78 -13 11 10 14
10 18 0 12 -33 23 -6 23 57 0 40 -4 70 -10 70 -5 0 -10 -5 -10 -12 0 -9 -3 -9
-12 0 -21 21 -75 15 -92 -10z m94 -17 c14 -27 13 -47 -6 -65 -38 -38 -94 5
-75 58 13 33 64 37 81 7z"/>
<path d="M6285 8995 c-339 -54 -634 -210 -871 -458 -205 -214 -339 -470 -401
-767 -17 -79 -18 -194 -18 -1770 0 -1577 1 -1690 18 -1770 62 -298 195 -552
401 -767 243 -255 565 -419 906 -463 59 -8 586 -10 1735 -8 l1650 4 90 22
c319 79 549 205 765 422 217 216 343 446 422 765 l22 90 4 1650 c2 1160 0
1675 -8 1735 -45 344 -207 662 -463 906 -210 201 -445 327 -741 397 l-91 21
-1670 2 c-1322 2 -1687 0 -1750 -11z m300 -634 c154 -76 304 -167 430 -260
131 -98 352 -321 437 -441 73 -103 182 -307 218 -408 17 -48 27 -61 39 -57 41
13 224 35 291 35 67 0 250 -22 291 -35 12 -4 22 9 39 57 32 90 113 250 174
343 191 292 472 536 847 734 107 56 308 141 335 141 30 0 107 -178 148 -339
28 -112 43 -217 50 -366 5 -86 4 -96 -7 -69 -6 18 -108 169 -226 338 l-213
306 -76 -53 c-269 -184 -421 -472 -398 -752 28 -336 226 -680 626 -1085 242
-245 410 -517 548 -890 44 -116 122 -384 122 -416 0 -7 -39 -9 -118 -6 -656
24 -1410 -527 -1819 -1328 l-64 -125 6 100 c8 130 39 375 69 545 13 74 24 149
25 166 4 99 132 527 226 755 43 104 51 130 40 139 -7 6 -16 29 -20 51 -4 21
-12 39 -19 39 -7 0 -19 18 -26 40 -7 22 -17 40 -21 40 -5 0 -13 19 -20 43 -14
53 -48 130 -62 138 -5 4 -7 22 -3 43 5 28 3 38 -9 42 -8 3 -15 17 -15 30 0 13
-4 24 -10 24 -5 0 -10 9 -10 19 0 11 -5 21 -12 23 -21 7 111 418 216 672 l44
106 -77 0 c-49 1 -96 8 -131 20 -51 18 -85 19 -445 19 -360 0 -394 -1 -445
-19 -36 -13 -82 -19 -132 -20 -43 0 -78 -3 -78 -8 0 -4 22 -62 49 -129 112
-278 214 -604 204 -653 -3 -17 -9 -30 -14 -30 -5 0 -9 -11 -9 -24 0 -13 -7
-27 -15 -30 -12 -4 -14 -14 -9 -42 4 -21 2 -39 -3 -43 -14 -8 -48 -85 -62
-138 -7 -24 -15 -43 -20 -43 -4 0 -14 -18 -21 -40 -7 -22 -19 -40 -25 -40 -7
0 -16 -17 -20 -37 -4 -21 -14 -46 -22 -55 -14 -16 -11 -31 45 -170 33 -84 79
-211 102 -282 48 -150 123 -453 115 -465 -2 -5 6 -67 19 -137 29 -156 63 -412
71 -549 l6 -100 -64 125 c-343 673 -934 1178 -1527 1306 -62 14 -128 18 -247
19 -110 0 -163 4 -163 11 0 21 69 260 104 362 75 219 176 427 293 607 88 135
148 208 290 352 211 214 364 414 462 603 96 186 133 304 147 465 23 280 -129
568 -398 752 l-76 53 -218 -313 c-218 -312 -218 -312 -225 -377 -5 -39 -6 -2
-4 90 7 254 53 466 146 657 l39 82 83 -30 c45 -16 136 -56 202 -88z m1005
-2556 c0 -8 -7 -15 -15 -15 -16 0 -20 12 -8 23 11 12 23 8 23 -8z m858 -3 c2
-7 -3 -12 -12 -12 -9 0 -16 7 -16 16 0 17 22 14 28 -4z"/>
</g>
</svg>
